<svg width="234" height="268" viewBox="0 0 234 268" fill="none" xmlns="http://www.w3.org/2000/svg">
<g clip-path="url(#clip0_1_514)">
<g clip-path="url(#clip1_1_514)">
<path d="M189.101 71.8888C188.88 73.4199 188.066 74.8026 186.834 75.7379L119.775 142.858C117.695 144.939 116.135 145.105 114.097 142.858C111.139 139.545 107.985 136.412 104.654 133.474C101.222 130.603 101.659 128.273 104.529 125.423C111.039 118.993 117.425 112.44 123.894 105.948C139.244 90.5725 154.719 75.2802 169.945 59.7589C172.836 56.8045 174.937 56.6588 177.682 59.5509C181.01 63.0671 184.505 66.4584 187.895 69.9538C188.369 70.5508 188.774 71.2 189.101 71.8888Z" fill="#74C6BE"/>
<path d="M131.985 14.9636C131.903 15.5774 131.702 16.169 131.391 16.7046C131.081 17.2401 130.667 17.7091 130.175 18.0845C107.725 40.5411 85.2823 62.9976 62.8461 85.4542C60.6414 87.6596 58.915 87.7637 56.7518 85.4542C53.403 81.938 49.9502 78.505 46.4559 75.0512C44.2095 72.9706 44.5007 70.89 46.6431 68.8094C66.7218 49.0438 86.7798 29.181 106.817 9.22117C109.375 6.70365 111.767 4.0821 114.284 1.56458C115.615 0.274607 117.092 -0.744886 118.756 0.898786C122.916 5.05998 127.076 9.22117 131.07 13.3824C131.438 13.8702 131.745 14.4012 131.985 14.9636Z" fill="#EA5504"/>
<path d="M88.5756 115.893C87.3402 115.689 86.2266 115.028 85.4556 114.041C82.2108 110.816 79.0908 107.425 75.6797 104.387C72.8509 101.87 73.0589 99.9974 75.6797 97.3966C90.6556 82.5203 105.59 67.4984 120.545 52.5181L141.49 31.5873C145.65 27.5302 145.65 27.5718 149.478 31.5873C152.535 34.7915 155.614 37.9748 158.858 40.9916C161.146 43.0722 160.689 44.5703 158.65 46.6093C142.329 62.8102 126.064 79.0666 109.854 95.3784L92.9643 112.398C91.7592 113.854 90.2647 115.045 88.5756 115.893Z" fill="#FABE00"/>
</g>
</g>
<path d="M69.5676 168.533V246.391C69.5676 250.143 68.6297 253.583 66.7541 256.709C64.8784 259.836 62.3695 262.338 59.2274 264.214C56.1174 266.09 52.6867 267.028 48.9354 267.028H20.8005C17.0492 267.028 13.5785 266.09 10.3882 264.214C7.21406 262.338 4.68914 259.836 2.81348 256.709C0.937828 253.583 0 250.143 0 246.391V235.134C0 233.146 0.705375 231.454 2.11612 230.059C3.52687 228.648 5.21817 227.943 7.19001 227.943H11.5665C13.5384 227.943 15.2297 228.648 16.6404 230.059C18.0512 231.454 18.7565 233.146 18.7565 235.134V246.391C18.7565 246.904 18.965 247.401 19.3818 247.882C19.7986 248.347 20.2715 248.58 20.8005 248.58H48.9354C49.4484 248.58 49.9133 248.347 50.3301 247.882C50.7469 247.401 50.9553 246.904 50.9553 246.391V168.533C50.9553 166.449 51.6607 164.733 53.0714 163.386C54.4822 162.023 56.1735 161.342 58.1453 161.342H62.3776C64.4616 161.342 66.177 162.023 67.5236 163.386C68.8862 164.733 69.5676 166.449 69.5676 168.533ZM151.928 182.123V204.973C151.928 208.725 151.014 212.156 149.187 215.267C147.359 218.394 144.882 220.903 141.756 222.796C138.63 224.656 135.143 225.586 131.296 225.586H102.536C101.285 225.586 100.66 226.267 100.66 227.63V259.836C100.66 261.809 99.9548 263.5 98.544 264.911C97.1333 266.322 95.442 267.028 93.4702 267.028H89.2379C87.2661 267.028 85.5748 266.322 84.164 264.911C82.7533 263.5 82.0479 261.809 82.0479 259.836V168.533C82.0479 166.449 82.7533 164.733 84.164 163.386C85.5748 162.023 87.2661 161.342 89.2379 161.342H131.296C135.143 161.342 138.63 162.28 141.756 164.156C144.882 166.032 147.359 168.533 149.187 171.66C151.014 174.787 151.928 178.275 151.928 182.123ZM133.484 204.973V182.123C133.484 180.68 132.755 179.958 131.296 179.958H102.536C101.285 179.958 100.66 180.632 100.66 181.979V204.973C100.66 206.32 101.285 206.993 102.536 206.993H131.296C132.755 206.993 133.484 206.32 133.484 204.973ZM234 223.565V246.391C234 250.143 233.054 253.583 231.162 256.709C229.287 259.836 226.786 262.338 223.66 264.214C220.534 266.09 217.095 267.028 213.344 267.028H171.622C169.635 267.028 167.943 266.322 166.549 264.911C165.138 263.5 164.432 261.809 164.432 259.836V168.533C164.432 166.449 165.138 164.733 166.549 163.386C167.943 162.023 169.635 161.342 171.622 161.342H211.155C215.019 161.342 218.49 162.28 221.568 164.156C224.646 166.032 227.115 168.533 228.974 171.66C230.866 174.787 231.812 178.275 231.812 182.123V200.74C231.812 203.562 231.283 206.167 230.225 208.557C229.712 209.695 229.816 210.842 230.537 211.996C232.846 215.444 234 219.3 234 223.565ZM213.344 200.74V182.123C213.344 181.498 213.111 180.977 212.646 180.56C212.181 180.159 211.685 179.958 211.155 179.958H185.233C183.87 179.958 183.189 180.632 183.189 181.979V200.74C183.189 202.103 183.87 202.784 185.233 202.784H211.155C211.685 202.784 212.181 202.568 212.646 202.135C213.111 201.734 213.344 201.269 213.344 200.74ZM215.388 246.391V223.565C215.388 222.106 214.706 221.377 213.344 221.377H185.233C183.87 221.377 183.189 222.05 183.189 223.397V246.535C183.189 247.898 183.87 248.58 185.233 248.58H213.344C213.873 248.58 214.346 248.347 214.763 247.882C215.179 247.401 215.388 246.904 215.388 246.391Z" fill="white"/>
<defs>
<clipPath id="clip0_1_514">
<rect width="144.281" height="144.504" fill="white" transform="translate(44.8594)"/>
</clipPath>
<clipPath id="clip1_1_514">
<rect width="144.203" height="144.434" fill="white" transform="translate(44.8988 0.046875)"/>
</clipPath>
</defs>
</svg>
