<svg width="52" height="64" viewBox="0 0 52 64" fill="none" xmlns="http://www.w3.org/2000/svg">
<g clip-path="url(#clip0_0_3)">
<g clip-path="url(#clip1_0_3)">
<path d="M41.8181 17.1094C41.7692 17.4748 41.5889 17.8047 41.3162 18.0279L26.4714 34.0445C26.011 34.541 25.6657 34.5808 25.2144 34.0445C24.5596 33.254 23.8615 32.5063 23.124 31.8054C22.3643 31.1202 22.461 30.5642 23.0964 29.884C24.5376 28.3498 25.9511 26.7859 27.3831 25.2369C30.7812 21.5678 34.2069 17.9187 37.5774 14.2149C38.2174 13.5099 38.6824 13.4751 39.2902 14.1652C40.0269 15.0043 40.8005 15.8136 41.551 16.6476C41.656 16.7901 41.7456 16.945 41.8181 17.1094Z" fill="#74C6BE"/>
<path d="M29.1743 3.52551C29.1562 3.67196 29.1116 3.81315 29.0428 3.94095C28.9741 4.06875 28.8826 4.18065 28.7737 4.27024C23.8039 9.62898 18.8357 14.9877 13.8691 20.3465C13.381 20.8728 12.9988 20.8976 12.52 20.3465C11.7787 19.5074 11.0143 18.6882 10.2408 17.864C9.7435 17.3676 9.80797 16.8711 10.2822 16.3746C14.727 11.658 19.1673 6.91817 23.6029 2.1552C24.1692 1.55445 24.6987 0.928879 25.2559 0.32813C25.5506 0.0203083 25.8775 -0.22297 26.2458 0.169254C27.1667 1.16223 28.0876 2.1552 28.9717 3.14818C29.0532 3.26459 29.1212 3.39131 29.1743 3.52551Z" fill="#EA5504"/>
<path d="M19.5648 27.6101C19.2913 27.5614 19.0448 27.4037 18.8741 27.1682C18.1558 26.3987 17.4652 25.5894 16.71 24.8645C16.0838 24.2638 16.1299 23.8169 16.71 23.1963C20.0252 19.6464 23.3312 16.0618 26.6418 12.4871L31.2785 7.49244C32.1994 6.52429 32.1994 6.53422 33.0466 7.49244C33.7234 8.25703 34.4049 9.01665 35.1232 9.73656C35.6297 10.233 35.5284 10.5905 35.0771 11.0771C31.4642 14.943 27.8635 18.8223 24.2751 22.7147L20.5363 26.776C20.2695 27.1236 19.9387 27.4076 19.5648 27.6101Z" fill="#FABE00"/>
</g>
</g>
<path d="M15.3746 40.1105V58.6406C15.3746 59.5336 15.1674 60.3522 14.7528 61.0964C14.3383 61.8405 13.7838 62.4359 13.0894 62.8824C12.4021 63.3289 11.6439 63.5521 10.8148 63.5521H4.59697C3.76792 63.5521 3.00088 63.3289 2.29583 62.8824C1.59433 62.4359 1.03631 61.8405 0.621787 61.0964C0.207263 60.3522 0 59.5336 0 58.6406V55.9615C0 55.4883 0.15589 55.0857 0.467669 54.7537C0.779449 54.4178 1.15323 54.2499 1.58901 54.2499H2.55624C2.99202 54.2499 3.3658 54.4178 3.67758 54.7537C3.98936 55.0857 4.14525 55.4883 4.14525 55.9615V58.6406C4.14525 58.7627 4.19131 58.881 4.28342 58.9955C4.37554 59.1062 4.48006 59.1615 4.59697 59.1615H10.8148C10.9282 59.1615 11.031 59.1062 11.1231 58.9955C11.2152 58.881 11.2613 58.7627 11.2613 58.6406V40.1105C11.2613 39.6144 11.4171 39.206 11.7289 38.8855C12.0407 38.5611 12.4145 38.3989 12.8503 38.3989H13.7856C14.2462 38.3989 14.6253 38.5611 14.9229 38.8855C15.224 39.206 15.3746 39.6144 15.3746 40.1105ZM33.5765 43.3448V48.783C33.5765 49.6761 33.3746 50.4928 32.9707 51.2331C32.5668 51.9773 32.0194 52.5745 31.3285 53.0249C30.6376 53.4676 29.8671 53.6889 29.0167 53.6889H22.6607C22.3843 53.6889 22.2462 53.8511 22.2462 54.1755V61.8405C22.2462 62.3099 22.0903 62.7126 21.7785 63.0484C21.4667 63.3842 21.0929 63.5521 20.6572 63.5521H19.7218C19.286 63.5521 18.9123 63.3842 18.6005 63.0484C18.2887 62.7126 18.1328 62.3099 18.1328 61.8405V40.1105C18.1328 39.6144 18.2887 39.206 18.6005 38.8855C18.9123 38.5611 19.286 38.3989 19.7218 38.3989H29.0167C29.8671 38.3989 30.6376 38.6221 31.3285 39.0686C32.0194 39.5152 32.5668 40.1105 32.9707 40.8547C33.3746 41.5989 33.5765 42.4289 33.5765 43.3448ZM29.5004 48.783V43.3448C29.5004 43.0013 29.3392 42.8296 29.0167 42.8296H22.6607C22.3843 42.8296 22.2462 42.9899 22.2462 43.3105V48.783C22.2462 49.1036 22.3843 49.2639 22.6607 49.2639H29.0167C29.3392 49.2639 29.5004 49.1036 29.5004 48.783ZM51.7146 53.2081V58.6406C51.7146 59.5336 51.5056 60.3522 51.0875 61.0964C50.673 61.8405 50.1203 62.4359 49.4294 62.8824C48.7386 63.3289 47.9786 63.5521 47.1496 63.5521H37.929C37.4897 63.5521 37.1159 63.3842 36.8077 63.0484C36.4959 62.7126 36.34 62.3099 36.34 61.8405V40.1105C36.34 39.6144 36.4959 39.206 36.8077 38.8855C37.1159 38.5611 37.4897 38.3989 37.929 38.3989H46.6659C47.5198 38.3989 48.2868 38.6221 48.9671 39.0686C49.6473 39.5152 50.1929 40.1105 50.6039 40.8547C51.022 41.5989 51.231 42.4289 51.231 43.3448V47.7755C51.231 48.4472 51.1141 49.0674 50.8803 49.636C50.7669 49.907 50.7899 50.1798 50.9494 50.4546C51.4595 51.2751 51.7146 52.1929 51.7146 53.2081ZM47.1496 47.7755V43.3448C47.1496 43.196 47.0982 43.072 46.9954 42.9727C46.8927 42.8773 46.7829 42.8296 46.6659 42.8296H40.937C40.6358 42.8296 40.4853 42.9899 40.4853 43.3105V47.7755C40.4853 48.0999 40.6358 48.2621 40.937 48.2621H46.6659C46.7829 48.2621 46.8927 48.2106 46.9954 48.1076C47.0982 48.0122 47.1496 47.9015 47.1496 47.7755ZM47.6013 58.6406V53.2081C47.6013 52.8608 47.4507 52.6871 47.1496 52.6871H40.937C40.6358 52.6871 40.4853 52.8474 40.4853 53.168V58.6749C40.4853 58.9993 40.6358 59.1615 40.937 59.1615H47.1496C47.2665 59.1615 47.371 59.1062 47.4631 58.9955C47.5552 58.881 47.6013 58.7627 47.6013 58.6406Z" fill="white"/>
<defs>
<clipPath id="clip0_0_3">
<rect width="31.8865" height="34.3918" fill="white" transform="translate(9.91394)"/>
</clipPath>
<clipPath id="clip1_0_3">
<rect width="31.922" height="34.466" fill="white" transform="translate(9.8961 -0.0340347)"/>
</clipPath>
</defs>
</svg>
