<svg width="55" height="56" viewBox="0 0 55 56" fill="none" xmlns="http://www.w3.org/2000/svg">
<path d="M40.762 54.2157C46.4491 48.4361 46.8337 41.0306 47.5329 36.5978C48.7372 28.9537 40.7621 25.8151 31.9401 24.0355L33.0705 6.95555C33.1245 5.76988 32.7373 4.60817 31.9894 3.71228C31.2415 2.81638 30.1905 2.25531 29.0553 2.14587C27.9201 2.03643 26.788 2.38705 25.8949 3.12474C25.0017 3.86243 24.4161 4.93035 24.2602 6.1062L22.4189 22.2196L18.3672 6.89893C18.0134 5.59159 17.1898 4.47622 16.0672 3.78417C14.9447 3.09212 13.6094 2.87649 12.3383 3.18202C11.7216 3.33017 11.1401 3.60666 10.6287 3.99486C10.1173 4.38307 9.68661 4.87496 9.36254 5.44096C9.03847 6.00696 8.82772 6.63535 8.74296 7.28835C8.65819 7.94135 8.70117 8.60545 8.86931 9.2407L14.502 31.2429" stroke="white" stroke-width="2" stroke-linecap="round" stroke-linejoin="round"/>
<path d="M16.3788 54.2157C8.59662 50.97 7.37512 42.724 7.72975 36.9699C7.95435 33.3494 11.0987 30.8286 14.5702 30.8286H27.1437C28.1497 30.8289 29.1207 31.2148 29.8726 31.9133C30.6246 32.6118 31.1054 33.5743 31.2239 34.6186C31.3424 35.6628 31.0904 36.7163 30.5156 37.5793C29.9408 38.4423 29.0832 39.0549 28.1052 39.3012L20.985 41.0888C23.231 40.7016 28.3534 43.0659 28.5386 48.231" stroke="white" stroke-width="2" stroke-linecap="round" stroke-linejoin="round"/>
</svg>
