<svg width="53" height="53" viewBox="0 0 53 53" fill="none" xmlns="http://www.w3.org/2000/svg">
<g clip-path="url(#clip0_53_2125)">
<path d="M19.3029 7.52548V1.88135M28.7098 7.52548V1.88135M19.3029 50.7972V44.0618M28.7098 50.7972V44.0618M29.4624 24.2697H13.4707M29.3119 24.2697C31.4374 24.1476 33.4371 23.2221 34.9057 21.6806C36.3744 20.1391 37.2021 18.097 37.2212 15.968C37.2404 13.839 36.4495 11.7824 35.0088 10.2148C33.5681 8.64713 31.5854 7.68578 29.4624 7.52548H16.5185C15.7102 7.52548 14.9349 7.84659 14.3634 8.41817C13.7918 8.98975 13.4707 9.76498 13.4707 10.5733V41.014C13.4707 41.8223 13.7918 42.5976 14.3634 43.1691C14.9349 43.7407 15.7102 44.0618 16.5185 44.0618H29.3119C31.9365 44.0618 34.4536 43.0192 36.3094 41.1633C38.1653 39.3075 39.2079 36.7904 39.2079 34.1658C39.2079 31.5412 38.1653 29.0241 36.3094 27.1682C34.4536 25.3124 31.9365 24.2697 29.3119 24.2697Z" stroke="white" stroke-width="3" stroke-linecap="round" stroke-linejoin="round"/>
</g>
<defs>
<clipPath id="clip0_53_2125">
<rect width="52.6786" height="52.6786" fill="white"/>
</clipPath>
</defs>
</svg>
