<svg width="64" height="63" viewBox="0 0 64 63" fill="none" xmlns="http://www.w3.org/2000/svg">
<g clip-path="url(#clip0_53_2145)">
<path d="M11.7538 31.4692L12.5753 31.6779L12.9158 30.9017C14.4255 27.4595 17.6603 20.85 22.7452 15.1668L23.7257 14.071L22.3463 13.5619L20.8063 12.9935L20.729 12.9649L20.6481 12.9495C18.4132 12.5215 16.1439 13.2116 14.5439 14.8116L5.4893 23.8663C3.54254 25.813 4.17867 29.0772 6.69297 30.1704L6.76713 30.2026L6.84551 30.2225L11.7538 31.4692ZM50.3536 42.686L50.3474 42.6556L50.3393 42.6257L49.9655 41.2396L49.5429 39.6728L48.3334 40.7546C42.6716 45.8183 36.0228 49.0532 32.5919 50.5871L31.8474 50.9199L32.0236 51.7161L33.0758 56.4705L33.0981 56.5712L33.1404 56.6652C34.2569 59.1433 37.5113 59.7847 39.4595 57.8365L48.5142 48.7819C50.1126 47.1834 50.8081 44.9105 50.3536 42.686ZM59.4917 3.83409C58.9092 3.25163 58.1553 2.87146 57.3408 2.74935C52.7494 2.00776 41.4425 2.15628 27.9123 15.6866C23.3877 20.2111 19.625 27.2219 17.5603 31.6576C16.8666 33.1311 17.2076 34.8826 18.3489 36.024L27.3222 44.9972C28.4718 46.1468 30.2052 46.4543 31.6682 45.7655C36.1039 43.7008 43.1147 39.9381 47.6392 35.4135C61.1695 21.8833 61.318 10.5764 60.5765 5.98496C60.4543 5.17047 60.0742 4.41655 59.4917 3.83409ZM45.2077 18.1181C47.0554 19.9658 47.0554 22.9952 45.2077 24.8429C43.36 26.6906 40.3306 26.6906 38.4829 24.8429C36.6352 22.9952 36.6352 19.9658 38.4829 18.1181C40.3306 16.2704 43.36 16.2704 45.2077 18.1181Z" stroke="white" stroke-width="2"/>
<path d="M9.6488 43.4226C9.6488 43.4226 1.87637 57.708 3.00428 58.8358C4.13218 59.9635 18.5959 52.3602 18.5959 52.3602C20.7671 51.2232 21.9245 48.4333 17.6657 44.1744C13.532 40.0407 10.8991 41.3549 9.6488 43.4226Z" stroke="white" stroke-width="2" stroke-linecap="round" stroke-linejoin="round"/>
</g>
<defs>
<clipPath id="clip0_53_2145">
<rect width="63" height="63" fill="white" transform="translate(0.5)"/>
</clipPath>
</defs>
</svg>
