<svg width="27" height="27" viewBox="0 0 27 27" fill="none" xmlns="http://www.w3.org/2000/svg">
<circle cx="13.5" cy="13.5" r="13" fill="#EA5504" stroke="#EA5504"/>
<g clip-path="url(#clip0_21_369)">
<path d="M11.4853 7.79767V6.03046M14.4307 7.79767V6.03046M11.4853 21.3463V19.2374M14.4307 21.3463V19.2374M14.6663 13.0404H9.65918M14.6192 13.0404C15.2847 13.0022 15.9108 12.7124 16.3706 12.2297C16.8305 11.7471 17.0896 11.1077 17.0956 10.4411C17.1016 9.77449 16.854 9.13053 16.4029 8.6397C15.9518 8.14887 15.331 7.84786 14.6663 7.79767H10.6135C10.3604 7.79767 10.1177 7.89821 9.93869 8.07718C9.75972 8.25614 9.65918 8.49887 9.65918 8.75197V18.2831C9.65918 18.5362 9.75972 18.779 9.93869 18.9579C10.1177 19.1369 10.3604 19.2374 10.6135 19.2374H14.6192C15.4409 19.2374 16.2291 18.911 16.8101 18.3299C17.3912 17.7488 17.7177 16.9607 17.7177 16.1389C17.7177 15.3171 17.3912 14.529 16.8101 13.9479C16.2291 13.3669 15.4409 13.0404 14.6192 13.0404Z" stroke="white" stroke-linecap="round" stroke-linejoin="round"/>
</g>
<defs>
<clipPath id="clip0_21_369">
<rect width="16.494" height="16.494" fill="white" transform="translate(5.44141 5.44141)"/>
</clipPath>
</defs>
</svg>
