<svg width="379" height="379" viewBox="0 0 379 379" fill="none" xmlns="http://www.w3.org/2000/svg">
<g clip-path="url(#clip0_53_2179)">
<path d="M379 188.515C378.419 192.533 376.279 196.161 373.041 198.615L196.794 374.74C191.327 380.2 187.227 380.636 181.87 374.74C174.095 366.047 165.807 357.825 157.051 350.118C148.031 342.583 149.179 336.469 156.723 328.989C173.834 312.119 190.617 294.922 207.618 277.888C247.963 237.542 288.635 197.414 328.651 156.686C336.25 148.933 341.772 148.551 348.988 156.14C357.734 165.367 366.919 174.266 375.829 183.438C377.076 185.004 378.14 186.708 379 188.515Z" fill="#74C6BE"/>
<path d="M228.884 39.1419C228.67 40.7524 228.14 42.3049 227.324 43.7103C226.507 45.1156 225.421 46.3461 224.128 47.3312C165.124 106.258 106.138 165.185 47.1701 224.111C41.3754 229.898 36.838 230.171 31.1526 224.111C22.3512 214.885 13.2764 205.876 4.09235 196.813C-1.8117 191.354 -1.04636 185.894 4.58436 180.435C57.3564 128.569 110.074 76.4488 162.737 24.0736C169.461 17.4676 175.747 10.5885 182.362 3.98249C185.861 0.597574 189.742 -2.0776 194.116 2.23544C205.049 13.1545 215.982 24.0736 226.479 34.9927C227.446 36.2729 228.254 37.6662 228.884 39.1419Z" fill="#EA5504"/>
<path d="M114.793 303.984C111.547 303.449 108.62 301.715 106.593 299.125C98.0653 290.663 89.8652 281.764 80.8998 273.793C73.465 267.187 74.0117 262.273 80.8998 255.449C120.26 216.413 159.511 176.995 198.817 137.687L253.867 82.7638C264.8 72.1176 264.8 72.2268 274.859 82.7638C282.895 91.1714 290.986 99.5245 299.514 107.441C305.527 112.9 304.325 116.831 298.967 122.182C256.072 164.693 213.322 207.35 170.718 250.153L126.328 294.812C123.161 298.635 119.233 301.758 114.793 303.984Z" fill="#FABE00"/>
</g>
<defs>
<clipPath id="clip0_53_2179">
<rect width="379" height="379" fill="white"/>
</clipPath>
</defs>
</svg>
