<svg width="99" height="100" viewBox="0 0 99 100" fill="none" xmlns="http://www.w3.org/2000/svg">
<g clip-path="url(#clip0_103_121)">
<path d="M23.7026 32.0625H49.7351" stroke="white" stroke-width="2" stroke-linecap="round" stroke-linejoin="round"/>
<path d="M93.5394 36.3697H81.8158C73.7733 36.3697 67.2582 42.4579 67.2582 49.9697C67.2582 57.4814 73.7778 63.5697 81.8113 63.5697H93.5394C93.9179 63.5697 94.1026 63.5697 94.2603 63.5606C96.6934 63.411 98.6308 61.6022 98.7885 59.331C98.7975 59.1859 98.7975 59.0091 98.7975 58.6601V41.2793C98.7975 40.9302 98.7975 40.7534 98.7885 40.6083C98.6263 38.3371 96.6934 36.5283 94.2603 36.3787C94.1071 36.3697 93.9179 36.3697 93.5394 36.3697Z" stroke="white" stroke-width="2"/>
<path d="M94.1342 36.3697C93.7827 27.8833 92.6563 22.679 89.0113 19.0161C83.7352 13.703 75.2376 13.703 58.247 13.703H44.7301C27.7394 13.703 19.2418 13.703 13.9658 19.0161C8.68518 24.3246 8.68518 32.8745 8.68518 49.9697C8.68518 67.0649 8.68518 75.6147 13.9658 80.9233C19.2418 86.2363 27.7394 86.2363 44.7301 86.2363H58.247C75.2376 86.2363 83.7352 86.2363 89.0113 80.9233C92.6563 77.2603 93.7873 72.0561 94.1342 63.5697" stroke="white" stroke-width="2"/>
<path d="M80.7336 49.9697H80.7804" stroke="white" stroke-width="2" stroke-linecap="round" stroke-linejoin="round"/>
<ellipse cx="28.4424" cy="65.4848" rx="4.81884" ry="4.84848" stroke="white" stroke-width="2"/>
</g>
<defs>
<clipPath id="clip0_103_121">
<rect width="98.3043" height="98.9091" fill="white" transform="translate(0.493164 0.515137)"/>
</clipPath>
</defs>
</svg>
