<svg width="100" height="101" viewBox="0 0 100 101" fill="none" xmlns="http://www.w3.org/2000/svg">
<path d="M51.2488 5.72973L63.4651 27.7532C64.0356 28.7819 65.03 29.5072 66.1838 29.7363L90.8052 34.6263C92.3371 34.9305 92.9448 36.7947 91.8864 37.9432L74.8034 56.4827C74.0113 57.3424 73.6348 58.5055 73.7731 59.6663L76.7608 84.7497C76.9461 86.3058 75.3512 87.4608 73.9306 86.7994L51.1883 76.2099C50.1178 75.7114 48.8818 75.7114 47.8114 76.2099L25.0691 86.7994C23.6485 87.4608 22.0535 86.3058 22.2389 84.7497L25.2266 59.6663C25.3648 58.5055 24.9884 57.3424 24.1962 56.4827L7.11321 37.9432C6.05489 36.7947 6.66253 34.9305 8.19441 34.6263L32.8159 29.7363C33.9696 29.5072 34.964 28.7819 35.5346 27.7532L47.7509 5.72973C48.5126 4.35657 50.4871 4.35657 51.2488 5.72973Z" stroke="white" stroke-width="2"/>
<path d="M71 22L82 9" stroke="white" stroke-width="2" stroke-linecap="round"/>
<path d="M49.6271 99.9998L49.6275 82.9999" stroke="white" stroke-width="2" stroke-linecap="round"/>
<path d="M2.0003 66.555L17.7343 60.0403" stroke="white" stroke-width="2" stroke-linecap="round"/>
<path d="M82.0002 61.5398L98.4483 65.9512" stroke="white" stroke-width="2" stroke-linecap="round"/>
<path d="M29 22L18 9" stroke="white" stroke-width="2" stroke-linecap="round"/>
</svg>
