<svg width="105" height="110" viewBox="0 0 105 110" fill="none" xmlns="http://www.w3.org/2000/svg">
<path d="M69.8845 18.807C79.3173 18.8613 84.4263 19.3003 87.7571 22.7757C91.5692 26.7534 91.5692 33.1521 91.5692 45.9495V73.101C91.5692 85.903 91.5692 92.3017 87.7571 96.2794C83.9492 100.253 77.8124 100.253 65.5475 100.253H39.5258C27.2609 100.253 21.1241 100.253 17.3162 96.2794C13.504 92.2971 13.504 85.903 13.504 73.101V45.9495C13.504 33.1521 13.504 26.7534 17.3162 22.7757C20.647 19.3003 25.7559 18.8613 35.1888 18.807" stroke="white" stroke-width="2"/>
<path d="M46.0312 64.0505H74.2214M30.8519 64.0505H33.0203M30.8519 48.2121H33.0203M30.8519 79.8889H33.0203M46.0312 48.2121H74.2214M46.0312 79.8889H74.2214" stroke="white" stroke-width="2" stroke-linecap="round"/>
<path d="M35.1888 16.5354C35.1888 14.7351 35.8742 13.0086 37.0942 11.7356C38.3142 10.4626 39.9689 9.74748 41.6942 9.74748H63.379C65.1044 9.74748 66.7591 10.4626 67.9791 11.7356C69.1991 13.0086 69.8845 14.7351 69.8845 16.5354V21.0606C69.8845 22.8609 69.1991 24.5874 67.9791 25.8604C66.7591 27.1333 65.1044 27.8485 63.379 27.8485H41.6942C39.9689 27.8485 38.3142 27.1333 37.0942 25.8604C35.8742 24.5874 35.1888 22.8609 35.1888 21.0606V16.5354Z" stroke="white" stroke-width="2"/>
</svg>
