<svg width="86" height="100" viewBox="0 0 86 100" fill="none" xmlns="http://www.w3.org/2000/svg">
<path d="M10.7744 70.8617C8.72248 72.9718 4.06007 80.0173 1.98535 83.2762L16.8618 98.3636C19.2785 95.0929 25.3909 88.5867 30.507 88.7274C35.6231 88.868 50.992 88.3053 57.7633 87.391C69.9038 81.2013 87.4929 72.5347 84.5408 67.2042C80.1976 59.3616 67.5099 71.7761 57.7633 74.8006C49.2935 75.9494 40.9376 74.4137 42.1003 73.9565C52.0032 70.0628 55.6088 71.5299 58.5499 65.4106C61.5349 59.1999 58.6639 60.7683 52.9755 61.8586C47.2871 62.9488 33.4055 64.1991 25.1158 64.4242C14.7536 64.7056 13.3393 68.2241 10.7744 70.8617Z" stroke="white" stroke-width="2"/>
<path d="M34.3608 9.54949C36.5195 11.6831 40.5363 14.0001 38.958 15.3684C35.7175 16.9092 27.2318 25.3553 25.5994 29.2231C24.4445 31.7054 22.408 38.4919 23.5007 45.7794C24.5933 53.067 29.3305 55.9049 31.5625 56.4129C35.4157 57.0479 44.8145 58.1309 51.5838 57.3827C58.3531 56.6346 61.4001 52.2449 62.0775 50.1436C63.2768 47.7422 64.9558 40.6601 62.0775 31.5438C59.1992 22.4274 49.0774 16.0897 49.2852 16.1997C49.8959 16.523 52.1435 15.6455 56.2477 9.54949C60.3519 3.45344 55.5592 2.85307 52.6498 3.31489L51.1174 4.76963C51.0619 4.57336 50.8376 4.09768 50.3845 3.76517C49.8182 3.34953 47.8527 4.18081 47.2198 4.18081C46.5868 4.18081 41.9896 2.93389 41.3899 2.6568C40.9102 2.43512 40.7681 2.74916 40.757 2.93389L40.3905 4.18081L38.4583 1.47915C37.5589 1.68697 35.3002 1.97792 33.4613 1.47915C31.6225 0.980384 30.9628 2.79534 30.8629 3.76517C31.1294 4.80427 32.2021 7.41587 34.3608 9.54949Z" stroke="white" stroke-width="2"/>
<path d="M42.9545 48.1818V26.3636H44.3523V48.1818H42.9545ZM47.6591 32.9091C47.5568 32.0455 47.142 31.375 46.4148 30.8977C45.6875 30.4205 44.7955 30.1818 43.7386 30.1818C42.9659 30.1818 42.2898 30.3068 41.7102 30.5568C41.1364 30.8068 40.6875 31.1506 40.3636 31.5881C40.0455 32.0256 39.8864 32.5227 39.8864 33.0795C39.8864 33.5455 39.9972 33.946 40.2188 34.2812C40.446 34.6108 40.7358 34.8864 41.0881 35.108C41.4403 35.3239 41.8097 35.5028 42.196 35.6449C42.5824 35.7812 42.9375 35.892 43.2614 35.9773L45.0341 36.4545C45.4886 36.5739 45.9943 36.7386 46.5511 36.9489C47.1136 37.1591 47.6506 37.446 48.1619 37.8097C48.679 38.1676 49.1051 38.6278 49.4403 39.1903C49.7756 39.7528 49.9432 40.4432 49.9432 41.2614C49.9432 42.2045 49.696 43.0568 49.2017 43.8182C48.7131 44.5795 47.9972 45.1847 47.054 45.6335C46.1165 46.0824 44.9773 46.3068 43.6364 46.3068C42.3864 46.3068 41.304 46.1051 40.3892 45.7017C39.4801 45.2983 38.7642 44.7358 38.2415 44.0142C37.7244 43.2926 37.4318 42.4545 37.3636 41.5H39.5455C39.6023 42.1591 39.8239 42.7045 40.2102 43.1364C40.6023 43.5625 41.0966 43.8807 41.6932 44.0909C42.2955 44.2955 42.9432 44.3977 43.6364 44.3977C44.4432 44.3977 45.1676 44.267 45.8097 44.0057C46.4517 43.7386 46.9602 43.3693 47.3352 42.8977C47.7102 42.4205 47.8977 41.8636 47.8977 41.2273C47.8977 40.6477 47.7358 40.1761 47.4119 39.8125C47.0881 39.4489 46.6619 39.1534 46.1335 38.9261C45.6051 38.6989 45.0341 38.5 44.4205 38.3295L42.2727 37.7159C40.9091 37.3239 39.8295 36.7642 39.0341 36.0369C38.2386 35.3097 37.8409 34.358 37.8409 33.1818C37.8409 32.2045 38.1051 31.3523 38.6335 30.625C39.1676 29.892 39.8835 29.3239 40.7812 28.9205C41.6847 28.5114 42.6932 28.3068 43.8068 28.3068C44.9318 28.3068 45.9318 28.5085 46.8068 28.9119C47.6818 29.3097 48.375 29.8551 48.8864 30.5483C49.4034 31.2415 49.6761 32.0284 49.7045 32.9091H47.6591Z" fill="white"/>
</svg>
